<?xml version="1.0" encoding="utf-8"?>
<!-- Generator: Adobe Illustrator 28.0.0, SVG Export Plug-In . SVG Version: 6.00 Build 0)  -->
<svg version="1.1" id="Layer_1" xmlns="http://www.w3.org/2000/svg" xmlns:xlink="http://www.w3.org/1999/xlink" x="0px" y="0px"
	 viewBox="0 0 264 280" style="enable-background:new 0 0 264 280;" xml:space="preserve">
<style type="text/css">
	.st0{fill-rule:evenodd;clip-rule:evenodd;fill:#E6E6E6;}
	.st1{filter:url(#Adobe_OpacityMaskFilter);}
	.st2{fill-rule:evenodd;clip-rule:evenodd;fill:#FFFFFF;}
	.st3{mask:url(#react-mask-4_00000147202503287773075630000017667706363960422310_);}
	.st4{fill-rule:evenodd;clip-rule:evenodd;fill:#65C9FF;}
	.st5{filter:url(#Adobe_OpacityMaskFilter_00000047018868376598221500000011202483648322388904_);}
	.st6{mask:url(#react-mask-5_00000138540393881300411790000001066464784022452920_);}
	.st7{fill-rule:evenodd;clip-rule:evenodd;fill:#D0C6AC;}
	.st8{filter:url(#Adobe_OpacityMaskFilter_00000052090265600852094850000012045368354747091870_);}
	.st9{mask:url(#react-mask-6_00000175282136846601260520000001163258151912614020_);}
	.st10{fill-rule:evenodd;clip-rule:evenodd;fill:#FFDBB4;}
	.st11{filter:url(#Adobe_OpacityMaskFilter_00000048472710287894299360000009332847050006830000_);}
	
		.st12{mask:url(#react-mask-6_00000106851414748734440680000010154391921680020917_);fill-rule:evenodd;clip-rule:evenodd;fill-opacity:0.1;}
	.st13{filter:url(#Adobe_OpacityMaskFilter_00000163764077473246150940000008260387222324724113_);}
	.st14{mask:url(#react-mask-178_00000011745101561902174480000015226810815186496391_);}
	.st15{fill-rule:evenodd;clip-rule:evenodd;fill:#25557C;}
	.st16{filter:url(#Adobe_OpacityMaskFilter_00000103975002278740056010000014689524438719750072_);}
	.st17{opacity:0.6;mask:url(#react-mask-178_00000077305141390966122800000001638132958080500623_);}
	.st18{fill-rule:evenodd;clip-rule:evenodd;fill-opacity:0.16;}
	.st19{fill-rule:evenodd;clip-rule:evenodd;fill-opacity:0.7;}
	.st20{filter:url(#Adobe_OpacityMaskFilter_00000168821329986184394930000005737795747952494753_);}
	
		.st21{mask:url(#react-mask-262_00000064349208445607857590000016218300303591194791_);fill-rule:evenodd;clip-rule:evenodd;fill:#FFFFFF;}
	.st22{filter:url(#Adobe_OpacityMaskFilter_00000179638308198133152070000009622623153934403972_);}
	.st23{mask:url(#react-mask-262_00000013180056721334667680000010169037837142167984_);}
	.st24{fill-rule:evenodd;clip-rule:evenodd;fill:#FF4F6D;}
	.st25{filter:url(#Adobe_OpacityMaskFilter_00000119100361619630088240000005542141084587630987_);}
	
		.st26{mask:url(#react-mask-267_00000109742213169211494720000008413148721736513423_);fill-rule:evenodd;clip-rule:evenodd;fill-opacity:0.7;}
	.st27{filter:url(#Adobe_OpacityMaskFilter_00000077299985440181888030000017421085969986215602_);}
	
		.st28{mask:url(#react-mask-268_00000041269169328704252970000002449827633223129747_);fill-rule:evenodd;clip-rule:evenodd;fill-opacity:0.7;}
	.st29{fill-rule:evenodd;clip-rule:evenodd;fill:#724133;}
	.st30{filter:url(#Adobe_OpacityMaskFilter_00000129174852445899162090000010407670583339288476_);}
	.st31{mask:url(#react-mask-77_00000086656338137748400350000001989205704282868659_);}
	.st32{opacity:0.2;}
	.st33{filter:url(#Adobe_OpacityMaskFilter_00000028285822006520517060000014572278763736393911_);}
	.st34{display:none;mask:url(#react-mask-125_00000021081399369566518970000011255329854807049358_);}
	.st35{display:inline;}
	.st36{fill-rule:evenodd;clip-rule:evenodd;fill:#1F3140;}
	.st37{filter:url(#Adobe_OpacityMaskFilter_00000132076174668353675370000016585742925730118834_);}
	.st38{mask:url(#react-mask-76_00000140733223123550563160000011747113422060498587_);}
	.st39{fill:#08003F;}
</style>
<g id="Circle" transform="translate(12.000000, 40.000000)">
	<g id="Circle-Background">
		<circle id="react-path-1_00000102517246147492856000000017175186925453669789_" class="st0" cx="120" cy="120" r="120"/>
	</g>
	<defs>
		<filter id="Adobe_OpacityMaskFilter" filterUnits="userSpaceOnUse" x="0" y="0" width="240" height="240">
			<feColorMatrix  type="matrix" values="1 0 0 0 0  0 1 0 0 0  0 0 1 0 0  0 0 0 1 0"/>
		</filter>
	</defs>
	
		<mask maskUnits="userSpaceOnUse" x="0" y="0" width="240" height="240" id="react-mask-4_00000147202503287773075630000017667706363960422310_">
		<g class="st1">
			<circle id="react-path-1_00000097488486298153426250000004401379501905507731_" class="st2" cx="120" cy="120" r="120"/>
		</g>
	</mask>
	<g id="Color_x2F_Palette_x2F_Blue-01" class="st3">
		<rect id="_xD83D__xDD8D_Color" class="st4" width="240" height="240"/>
	</g>
</g>
<g id="Mask">
</g>
<defs>
	
		<filter id="Adobe_OpacityMaskFilter_00000169531970854749480900000005041200420643372928_" filterUnits="userSpaceOnUse" x="-1" y="0" width="297" height="316">
		<feColorMatrix  type="matrix" values="1 0 0 0 0  0 1 0 0 0  0 0 1 0 0  0 0 0 1 0"/>
	</filter>
</defs>
<mask maskUnits="userSpaceOnUse" x="-1" y="0" width="297" height="316" id="react-mask-5_00000138540393881300411790000001066464784022452920_">
	<g style="filter:url(#Adobe_OpacityMaskFilter_00000169531970854749480900000005041200420643372928_);">
		<path id="react-path-2_00000136379874464785595340000005301804279679360139_" class="st2" d="M12,160c0,66.3,53.7,120,120,120
			s120-53.7,120-120h12V0H0v160H12z"/>
	</g>
</mask>
<g id="Avataaar" class="st6">
	<g id="Body" transform="translate(32.000000, 36.000000)">
		<g>
			<path id="react-path-3_00000148629505584109599590000015665524583620625793_" class="st7" d="M124,144.6V163h4l0,0
				c39.8,0,72,32.2,72,72v9H0v-9c0-39.8,32.2-72,72-72l0,0h4v-18.4c-17.2-8.2-29.6-24.9-31.7-44.7C38.5,99.1,34,94.1,34,88V74
				c0-5.9,4.3-10.9,10-11.8V56l0,0c0-30.9,25.1-56,56-56l0,0l0,0c30.9,0,56,25.1,56,56v6.2c5.7,1,10,5.9,10,11.8v14
				c0,6.1-4.5,11.1-10.3,11.9C153.6,119.7,141.2,136.4,124,144.6z"/>
		</g>
		<defs>
			
				<filter id="Adobe_OpacityMaskFilter_00000090280290139266669780000000186265021556175254_" filterUnits="userSpaceOnUse" x="0" y="0" width="264" height="280">
				<feColorMatrix  type="matrix" values="1 0 0 0 0  0 1 0 0 0  0 0 1 0 0  0 0 0 1 0"/>
			</filter>
		</defs>
		
			<mask maskUnits="userSpaceOnUse" x="0" y="0" width="264" height="280" id="react-mask-6_00000175282136846601260520000001163258151912614020_">
			<g style="filter:url(#Adobe_OpacityMaskFilter_00000090280290139266669780000000186265021556175254_);">
				<path id="react-path-3_00000108277312563281031040000007528579995750278554_" class="st2" d="M124,144.6V163h4l0,0
					c39.8,0,72,32.2,72,72v9H0v-9c0-39.8,32.2-72,72-72l0,0h4v-18.4c-17.2-8.2-29.6-24.9-31.7-44.7C38.5,99.1,34,94.1,34,88V74
					c0-5.9,4.3-10.9,10-11.8V56l0,0c0-30.9,25.1-56,56-56l0,0l0,0c30.9,0,56,25.1,56,56v6.2c5.7,1,10,5.9,10,11.8v14
					c0,6.1-4.5,11.1-10.3,11.9C153.6,119.7,141.2,136.4,124,144.6z"/>
			</g>
		</mask>
		<g id="Skin_x2F__xD83D__xDC76__xD83C__xDFFD_-03-Brown" class="st9">
			<g id="Color" transform="translate(0.000000, 0.000000)">
				<rect class="st10" width="264" height="280"/>
			</g>
		</g>
		<defs>
			
				<filter id="Adobe_OpacityMaskFilter_00000021091518036203225180000015704685326971935397_" filterUnits="userSpaceOnUse" x="44" y="79" width="112" height="79">
				<feColorMatrix  type="matrix" values="1 0 0 0 0  0 1 0 0 0  0 0 1 0 0  0 0 0 1 0"/>
			</filter>
		</defs>
		
			<mask maskUnits="userSpaceOnUse" x="44" y="79" width="112" height="79" id="react-mask-6_00000106851414748734440680000010154391921680020917_">
			<g style="filter:url(#Adobe_OpacityMaskFilter_00000021091518036203225180000015704685326971935397_);">
				<path id="react-path-3_00000170970706638220240260000004759824831329441210_" class="st2" d="M124,144.6V163h4l0,0
					c39.8,0,72,32.2,72,72v9H0v-9c0-39.8,32.2-72,72-72l0,0h4v-18.4c-17.2-8.2-29.6-24.9-31.7-44.7C38.5,99.1,34,94.1,34,88V74
					c0-5.9,4.3-10.9,10-11.8V56l0,0c0-30.9,25.1-56,56-56l0,0l0,0c30.9,0,56,25.1,56,56v6.2c5.7,1,10,5.9,10,11.8v14
					c0,6.1-4.5,11.1-10.3,11.9C153.6,119.7,141.2,136.4,124,144.6z"/>
			</g>
		</mask>
		<path id="Neck-Shadow" class="st12" d="M156,79v23c0,30.9-25.1,56-56,56s-56-25.1-56-56V79v15c0,30.9,25.1,56,56,56s56-25.1,56-56
			V79z"/>
	</g>
	<g id="Clothing_x2F_Shirt-Crew-Neck" transform="translate(0.000000, 170.000000)">
		<g id="Clothes">
			<path id="react-path-177_00000003100285840200769180000011688432086529687466_" class="st0" d="M166,29.3c37,3,66,34,66,71.8v8.9
				H32v-8.9C32,63,61.6,31.8,99,29.2c0,0.4,0,0.7,0,1.1c0,11.9,15,21.5,33.5,21.5S166,42.2,166,30.3C166,30,166,29.6,166,29.3z"/>
		</g>
		<defs>
			
				<filter id="Adobe_OpacityMaskFilter_00000056428414651571379880000007565163026860496285_" filterUnits="userSpaceOnUse" x="0" y="0" width="264" height="110">
				<feColorMatrix  type="matrix" values="1 0 0 0 0  0 1 0 0 0  0 0 1 0 0  0 0 0 1 0"/>
			</filter>
		</defs>
		
			<mask maskUnits="userSpaceOnUse" x="0" y="0" width="264" height="110" id="react-mask-178_00000011745101561902174480000015226810815186496391_">
			<g style="filter:url(#Adobe_OpacityMaskFilter_00000056428414651571379880000007565163026860496285_);">
				<path id="react-path-177_00000079444925866335835650000015296754871361864876_" class="st2" d="M166,29.3c37,3,66,34,66,71.8
					v8.9H32v-8.9C32,63,61.6,31.8,99,29.2c0,0.4,0,0.7,0,1.1c0,11.9,15,21.5,33.5,21.5S166,42.2,166,30.3C166,30,166,29.6,166,29.3z
					"/>
			</g>
		</mask>
		<g id="Color_x2F_Palette_x2F_Gray-01" class="st14">
			<rect id="_xD83D__xDD8D_Color_00000173871741505845891060000003658318150796507810_" class="st15" width="264" height="110"/>
		</g>
		<defs>
			
				<filter id="Adobe_OpacityMaskFilter_00000021104164822662672190000007569418955558019742_" filterUnits="userSpaceOnUse" x="92.9" y="4.9" width="79.3" height="53.8">
				<feColorMatrix  type="matrix" values="1 0 0 0 0  0 1 0 0 0  0 0 1 0 0  0 0 0 1 0"/>
			</filter>
		</defs>
		
			<mask maskUnits="userSpaceOnUse" x="92.9" y="4.9" width="79.3" height="53.8" id="react-mask-178_00000077305141390966122800000001638132958080500623_">
			<g style="filter:url(#Adobe_OpacityMaskFilter_00000021104164822662672190000007569418955558019742_);">
				<path id="react-path-177_00000062167836873850306240000009171424981885330103_" class="st2" d="M166,29.3c37,3,66,34,66,71.8
					v8.9H32v-8.9C32,63,61.6,31.8,99,29.2c0,0.4,0,0.7,0,1.1c0,11.9,15,21.5,33.5,21.5S166,42.2,166,30.3C166,30,166,29.6,166,29.3z
					"/>
			</g>
		</mask>
		<g id="Shadowy" class="st17">
			<g id="Hola-_xD83D__xDC4B__xD83C__xDFFC_" transform="translate(92.000000, 4.000000)">
				<ellipse class="st18" cx="40.5" cy="27.8" rx="39.6" ry="26.9"/>
			</g>
		</g>
	</g>
	<g id="Face" transform="translate(76.000000, 82.000000)">
		<g id="Mouth_x2F_Smile" transform="translate(2.000000, 52.000000)">
			<g id="Mouth">
				<path id="react-path-261_00000069394589691500140620000014529661791233982112_" class="st19" d="M35.1,15.1
					C36.2,24.6,44.2,32,54,32c9.8,0,17.9-7.4,18.9-17c0.1-0.8-0.8-2-1.8-2c-14.9,0-26.3,0-34,0C36,13,35,14.2,35.1,15.1z"/>
			</g>
			<defs>
				
					<filter id="Adobe_OpacityMaskFilter_00000162343136948625379620000000017235893675446670_" filterUnits="userSpaceOnUse" x="39" y="2" width="31" height="16">
					<feColorMatrix  type="matrix" values="1 0 0 0 0  0 1 0 0 0  0 0 1 0 0  0 0 0 1 0"/>
				</filter>
			</defs>
			
				<mask maskUnits="userSpaceOnUse" x="39" y="2" width="31" height="16" id="react-mask-262_00000064349208445607857590000016218300303591194791_">
				<g style="filter:url(#Adobe_OpacityMaskFilter_00000162343136948625379620000000017235893675446670_);">
					<path id="react-path-261_00000101079021224324332960000014191396275282760859_" class="st2" d="M35.1,15.1
						C36.2,24.6,44.2,32,54,32c9.8,0,17.9-7.4,18.9-17c0.1-0.8-0.8-2-1.8-2c-14.9,0-26.3,0-34,0C36,13,35,14.2,35.1,15.1z"/>
				</g>
			</mask>
			<path id="Teeth" class="st21" d="M44,2h21c2.8,0,5,2.2,5,5v6c0,2.8-2.2,5-5,5H44c-2.8,0-5-2.2-5-5V7C39,4.2,41.2,2,44,2z"/>
			<defs>
				
					<filter id="Adobe_OpacityMaskFilter_00000114792922898861140300000006116058123622130835_" filterUnits="userSpaceOnUse" x="38" y="24" width="32" height="22">
					<feColorMatrix  type="matrix" values="1 0 0 0 0  0 1 0 0 0  0 0 1 0 0  0 0 0 1 0"/>
				</filter>
			</defs>
			
				<mask maskUnits="userSpaceOnUse" x="38" y="24" width="32" height="22" id="react-mask-262_00000013180056721334667680000010169037837142167984_">
				<g style="filter:url(#Adobe_OpacityMaskFilter_00000114792922898861140300000006116058123622130835_);">
					<path id="react-path-261_00000095325026330952625190000003233975189571643266_" class="st2" d="M35.1,15.1
						C36.2,24.6,44.2,32,54,32c9.8,0,17.9-7.4,18.9-17c0.1-0.8-0.8-2-1.8-2c-14.9,0-26.3,0-34,0C36,13,35,14.2,35.1,15.1z"/>
				</g>
			</mask>
			<g id="Tongue" class="st23">
				<g transform="translate(38.000000, 24.000000)">
					<circle class="st24" cx="11" cy="11" r="11"/>
					<circle class="st24" cx="21" cy="11" r="11"/>
				</g>
			</g>
		</g>
		<g id="Eyes_x2F_Squint-_xD83D__xDE0A_" transform="translate(0.000000, 8.000000)">
			<g id="Eye" transform="translate(16.000000, 13.000000)">
				<g id="The-white-stuff">
					<path id="react-path-265_00000112594221661397155750000007783127278509789086_" class="st2" d="M14,14c9.6,0,14,4.5,14-2.5
						S21.7,0,14,0S0,4.6,0,11.6S4.4,14,14,14z"/>
				</g>
				<defs>
					
						<filter id="Adobe_OpacityMaskFilter_00000128477222273407424960000009280926017056791482_" filterUnits="userSpaceOnUse" x="8" y="4" width="12" height="12">
						<feColorMatrix  type="matrix" values="1 0 0 0 0  0 1 0 0 0  0 0 1 0 0  0 0 0 1 0"/>
					</filter>
				</defs>
				
					<mask maskUnits="userSpaceOnUse" x="8" y="4" width="12" height="12" id="react-mask-267_00000109742213169211494720000008413148721736513423_">
					<g style="filter:url(#Adobe_OpacityMaskFilter_00000128477222273407424960000009280926017056791482_);">
						<path id="react-path-265_00000147941432371567498410000000868783730995782293_" class="st2" d="M14,14c9.6,0,14,4.5,14-2.5
							S21.7,0,14,0S0,4.6,0,11.6S4.4,14,14,14z"/>
					</g>
				</mask>
				<circle class="st26" cx="14" cy="10" r="6"/>
			</g>
			<g id="Eye_00000084492996289304957280000003027700372217175741_" transform="translate(68.000000, 13.000000)">
				<g id="Eyeball-Mask">
					<path id="react-path-266_00000165954492468737141130000000877297440930781847_" class="st2" d="M14,14c9.6,0,14,4.5,14-2.5
						S21.7,0,14,0S0,4.6,0,11.6S4.4,14,14,14z"/>
				</g>
				<defs>
					
						<filter id="Adobe_OpacityMaskFilter_00000178167016522905579730000014632101793926939320_" filterUnits="userSpaceOnUse" x="8" y="4" width="12" height="12">
						<feColorMatrix  type="matrix" values="1 0 0 0 0  0 1 0 0 0  0 0 1 0 0  0 0 0 1 0"/>
					</filter>
				</defs>
				
					<mask maskUnits="userSpaceOnUse" x="8" y="4" width="12" height="12" id="react-mask-268_00000041269169328704252970000002449827633223129747_">
					<g style="filter:url(#Adobe_OpacityMaskFilter_00000178167016522905579730000014632101793926939320_);">
						<path id="react-path-266_00000004520524147449176550000010958838188163740834_" class="st2" d="M14,14c9.6,0,14,4.5,14-2.5
							S21.7,0,14,0S0,4.6,0,11.6S4.4,14,14,14z"/>
					</g>
				</mask>
				<circle class="st28" cx="14" cy="10" r="6"/>
			</g>
		</g>
		<g id="Eyebrow_x2F_Natural_x2F_Raised-Excited-Natural">
			<path id="Eye-Browse-Reddit" class="st29" d="M22.8,1.6l0.9-0.4c5.2-2.1,13.2-1.2,18,1.1c0.6,0.3,0.2,1.2-0.4,1.1
				c-14.9-1.2-25,8.1-28.4,14.4c-0.1,0.2-0.4,0.2-0.5,0C10.2,12.6,16.9,3.9,22.8,1.6z"/>
			<path id="Eye-Browse-Reddit_00000152241661722489258060000009347572503958431383_" class="st29" d="M89.2,1.6l-0.9-0.4
				c-5.2-2.1-13.2-1.2-18,1.1c-0.6,0.3-0.2,1.2,0.4,1.1c14.9-1.2,25,8.1,28.4,14.4c0.1,0.2,0.4,0.2,0.5,0
				C101.8,12.6,95.1,3.9,89.2,1.6z"/>
		</g>
		<g id="Nose_x2F_Default" transform="translate(28.000000, 40.000000)">
			<path id="Nose" class="st18" d="M16,8c0,4.4,5.4,8,12,8l0,0c6.6,0,12-3.6,12-8"/>
		</g>
	</g>
	<g id="Top">
		<g id="Mask_00000119819719357109087040000011139946911458136715_">
		</g>
		<defs>
			
				<filter id="Adobe_OpacityMaskFilter_00000031195116331100171250000010255544554787672223_" filterUnits="userSpaceOnUse" x="-1" y="0" width="281" height="316">
				<feColorMatrix  type="matrix" values="1 0 0 0 0  0 1 0 0 0  0 0 1 0 0  0 0 0 1 0"/>
			</filter>
		</defs>
		
			<mask maskUnits="userSpaceOnUse" x="-1" y="0" width="281" height="316" id="react-mask-77_00000086656338137748400350000001989205704282868659_">
			<g style="filter:url(#Adobe_OpacityMaskFilter_00000031195116331100171250000010255544554787672223_);">
				<rect id="react-path-79_00000041278712346461797440000018359822025671223466_" class="st2" width="264" height="280"/>
			</g>
		</mask>
		<g id="Top_x2F_Short-Hair_x2F_Short-Flat" class="st31">
			<g transform="translate(-1.000000, 0.000000)">
				<g id="Facial-Hair_x2F_Beard-Light" transform="translate(49.000000, 72.000000)">
					<g id="Lite-Beard" class="st32">
						<path id="react-path-126_00000093143845516302921390000005177614134034016147_" class="st29" d="M101.4,98.2
							c-2.5,2.3-5.2,3.3-8.6,2.6c-0.6-0.1-3-4.5-8.9-4.5c-5.9,0-8.3,4.4-8.9,4.5c-3.4,0.7-6.1-0.3-8.6-2.6
							c-4.7-4.3-8.7-10.3-6.3-16.7c1.2-3.4,3.2-7.1,6.9-8.2c3.9-1.2,9.3,0,13.3-0.8c1.3-0.3,2.7-0.7,3.6-1.5
							c0.9,0.8,2.3,1.2,3.6,1.5c3.9,0.8,9.4-0.4,13.3,0.8c3.6,1.1,5.6,4.8,6.9,8.2C110.1,87.9,106.2,93.9,101.4,98.2 M140.1,26
							c-3.4,8.4-2.1,18.9-2.7,27.7c-0.5,7.2-2,17.9-8.4,22.5c-3.3,2.4-9.2,6.3-13.4,5.2c-2.9-0.8-3.2-9.2-7.1-12.3
							c-4.4-3.6-9.8-5.1-15.3-4.9c-2.4,0.1-7.2,0.1-9.1,1.9c-2-1.8-6.8-1.8-9.1-1.9c-5.5-0.2-10.9,1.3-15.3,4.9
							c-3.8,3.1-4.2,11.5-7.1,12.3c-4.3,1.1-10.2-2.9-13.4-5.2c-6.4-4.6-7.9-15.4-8.4-22.5C30,44.9,31.3,34.4,27.9,26
							c-1.7,0-0.6,16.1-0.6,16.1L28,62.4c1.4,16.6,11,35.4,30.3,45.3C64,111.2,75,114,84,114s17.3-1.9,26-6.4
							c18.3-9.6,28.7-28.1,29.8-45.1l0.8-20.4C140.6,42.1,141.7,26,140.1,26"/>
					</g>
					<defs>
						
							<filter id="Adobe_OpacityMaskFilter_00000163036188245832956610000008603381785789850521_" filterUnits="userSpaceOnUse" x="-32" y="0" width="264" height="244">
							<feColorMatrix  type="matrix" values="1 0 0 0 0  0 1 0 0 0  0 0 1 0 0  0 0 0 1 0"/>
						</filter>
					</defs>
					
						<mask maskUnits="userSpaceOnUse" x="-32" y="0" width="264" height="244" id="react-mask-125_00000021081399369566518970000011255329854807049358_">
						<g style="filter:url(#Adobe_OpacityMaskFilter_00000163036188245832956610000008603381785789850521_);">
							<path id="react-path-126_00000088114261200133885840000011103945752619656067_" class="st2" d="M101.4,98.2
								c-2.5,2.3-5.2,3.3-8.6,2.6c-0.6-0.1-3-4.5-8.9-4.5c-5.9,0-8.3,4.4-8.9,4.5c-3.4,0.7-6.1-0.3-8.6-2.6
								c-4.7-4.3-8.7-10.3-6.3-16.7c1.2-3.4,3.2-7.1,6.9-8.2c3.9-1.2,9.3,0,13.3-0.8c1.3-0.3,2.7-0.7,3.6-1.5
								c0.9,0.8,2.3,1.2,3.6,1.5c3.9,0.8,9.4-0.4,13.3,0.8c3.6,1.1,5.6,4.8,6.9,8.2C110.1,87.9,106.2,93.9,101.4,98.2 M140.1,26
								c-3.4,8.4-2.1,18.9-2.7,27.7c-0.5,7.2-2,17.9-8.4,22.5c-3.3,2.4-9.2,6.3-13.4,5.2c-2.9-0.8-3.2-9.2-7.1-12.3
								c-4.4-3.6-9.8-5.1-15.3-4.9c-2.4,0.1-7.2,0.1-9.1,1.9c-2-1.8-6.8-1.8-9.1-1.9c-5.5-0.2-10.9,1.3-15.3,4.9
								c-3.8,3.1-4.2,11.5-7.1,12.3c-4.3,1.1-10.2-2.9-13.4-5.2c-6.4-4.6-7.9-15.4-8.4-22.5C30,44.9,31.3,34.4,27.9,26
								c-1.7,0-0.6,16.1-0.6,16.1v20.4c0,15.3,9.6,38.2,30.8,46.9C63.3,111.5,75,115,84,115s20.7-3.1,25.9-5.3
								c21.2-8.7,30.7-32,30.8-47.2V42.1C140.6,42.1,141.7,26,140.1,26"/>
						</g>
					</mask>
					<g id="Color_x2F_Hair_x2F_Brown" class="st34">
						
							<g id="Color_00000127724385807098005170000011187625345722907782_" transform="translate(-32.000000, 0.000000)" class="st35">
							<rect class="st29" width="264" height="244"/>
						</g>
					</g>
				</g>
				<g id="Short-Hair">
					<path id="react-path-78_00000140692741456565720130000007178594885038123145_" class="st36" d="M180.1,39.9
						c-2.8-2.8-6-5.2-9.1-7.6c-0.7-0.5-1.4-1-2.1-1.6c-0.2-0.1-1.7-1.2-1.9-1.7c-0.5-1-0.2-0.2-0.1-1.4c0.1-1.5,3.1-5.7,0.9-6.7
						c-1-0.4-2.8,0.7-3.8,1.1c-1.9,0.7-3.8,1.4-5.7,1.9c0.9-1.9,2.7-5.6-0.6-4.6c-2.6,0.8-5,2.8-7.6,3.7c0.9-1.4,4.3-5.8,1.2-6.1
						c-1-0.1-3.8,1.7-4.9,2.1c-3.1,1.2-6.3,1.9-9.6,2.5c-11.2,2-24.3,1.4-34.7,6.5c-8,3.9-15.9,10-20.5,17.8
						c-4.4,7.5-6.1,15.7-7,24.3c-0.7,6.3-0.7,12.8-0.4,19.1c0.1,2.1,0.3,11.6,3.3,8.7c1.5-1.4,1.5-7.3,1.9-9.2
						c0.8-3.9,1.5-7.8,2.7-11.6c2.2-6.7,4.8-13.8,10.3-18.4c3.5-3,6-6.9,9.4-9.9c1.5-1.3,0.4-1.2,2.8-1c1.6,0.1,3.3,0.2,4.9,0.2
						c3.8,0.1,7.6,0.1,11.4,0.1c7.6,0,15.3,0.1,22.9-0.3c3.4-0.2,6.8-0.3,10.2-0.6c1.9-0.2,5.2-1.4,6.8-0.5c1.4,0.8,2.9,3.6,3.9,4.7
						c2.4,2.7,5.3,4.7,8.1,6.9c5.9,4.6,8.9,10.3,10.7,17.5c1.8,7.1,1.3,13.7,3.5,20.8c0.4,1.2,1.4,3.4,2.7,1.5
						c0.2-0.4,0.2-2.3,0.2-3.4c0-4.5,1.1-7.9,1.1-12.5C190.9,68.5,190.5,50.5,180.1,39.9z"/>
				</g>
				<defs>
					
						<filter id="Adobe_OpacityMaskFilter_00000118392489139454595620000002059186693677236662_" filterUnits="userSpaceOnUse" x="0" y="0" width="264" height="280">
						<feColorMatrix  type="matrix" values="1 0 0 0 0  0 1 0 0 0  0 0 1 0 0  0 0 0 1 0"/>
					</filter>
				</defs>
				
					<mask maskUnits="userSpaceOnUse" x="0" y="0" width="264" height="280" id="react-mask-76_00000140733223123550563160000011747113422060498587_">
					<g style="filter:url(#Adobe_OpacityMaskFilter_00000118392489139454595620000002059186693677236662_);">
						<path id="react-path-78_00000065756687842211440650000003692671344293916818_" class="st2" d="M180.1,39.9
							c-2.8-2.8-6-5.2-9.1-7.6c-0.7-0.5-1.4-1-2.1-1.6c-0.2-0.1-1.7-1.2-1.9-1.7c-0.5-1-0.2-0.2-0.1-1.4c0.1-1.5,3.1-5.7,0.9-6.7
							c-1-0.4-2.8,0.7-3.8,1.1c-1.9,0.7-3.8,1.4-5.7,1.9c0.9-1.9,2.7-5.6-0.6-4.6c-2.6,0.8-5,2.8-7.6,3.7c0.9-1.4,4.3-5.8,1.2-6.1
							c-1-0.1-3.8,1.7-4.9,2.1c-3.1,1.2-6.3,1.9-9.6,2.5c-11.2,2-24.3,1.4-34.7,6.5c-8,3.9-15.9,10-20.5,17.8
							c-4.4,7.5-6.1,15.7-7,24.3c-0.7,6.3-0.7,12.8-0.4,19.1c0.1,2.1,0.3,11.6,3.3,8.7c1.5-1.4,1.5-7.3,1.9-9.2
							c0.8-3.9,1.5-7.8,2.7-11.6c2.2-6.7,4.8-13.8,10.3-18.4c3.5-3,6-6.9,9.4-9.9c1.5-1.3,0.4-1.2,2.8-1c1.6,0.1,3.3,0.2,4.9,0.2
							c3.8,0.1,7.6,0.1,11.4,0.1c7.6,0,15.3,0.1,22.9-0.3c3.4-0.2,6.8-0.3,10.2-0.6c1.9-0.2,5.2-1.4,6.8-0.5
							c1.4,0.8,2.9,3.6,3.9,4.7c2.4,2.7,5.3,4.7,8.1,6.9c5.9,4.6,8.9,10.3,10.7,17.5c1.8,7.1,1.3,13.7,3.5,20.8
							c0.4,1.2,1.4,3.4,2.7,1.5c0.2-0.4,0.2-2.3,0.2-3.4c0-4.5,1.1-7.9,1.1-12.5C190.9,68.5,190.5,50.5,180.1,39.9z"/>
					</g>
				</mask>
				<g id="Skin_x2F__xD83D__xDC76__xD83C__xDFFD_-03-Brown_00000015315498487380278810000007335861960648040324_" class="st38">
					<g id="Color_00000088095108971611826820000013902385494241335215_" transform="translate(0.000000, 0.000000) ">
						<rect class="st29" width="264" height="280"/>
					</g>
				</g>
				<g id="Top_x2F__x5F_Resources_x2F_Prescription-02" transform="translate(62.000000, 85.000000)">
					<g id="Wayfarers" transform="translate(6.000000, 7.000000)">
						<path id="Left" class="st39" d="M34,41h-2.8C17.3,41,9,33.3,9,20.5C9,10.1,10.8,0,32.5,0h2.9C57.2,0,59,10.1,59,20.5
							C59,32.6,48.7,41,34,41z M32.4,6C13,6,13,12.8,13,21.5C13,28.6,16.1,37,31,37h3c12.4,0,21-6.4,21-15.5C55,12.8,55,6,35.6,6
							H32.4z"/>
						<path id="Right" class="st39" d="M96,41h-2.8C79.3,41,71,33.3,71,20.5C71,10.1,72.8,0,94.5,0h2.9C119.2,0,121,10.1,121,20.5
							C121,32.6,110.7,41,96,41z M94.4,6C75,6,75,12.8,75,21.5C75,28.6,78.1,37,93,37h3c12.4,0,21-6.4,21-15.5
							C117,12.8,117,6,97.6,6H94.4z"/>
						<path id="Stuff" class="st39" d="M3,5.8C3.6,5.1,11.2,0,32.5,0c17.9,0,21.6,1.9,27.4,4.7l0.4,0.2c0.4,0.1,2.4,0.8,4.8,0.9
							c2.2-0.1,4-0.7,4.6-0.9C76.2,1.7,82.6,0,97.5,0c21.3,0,28.9,5.1,29.5,5.8c1.6,0,3,1.3,3,2.9v2.9c0,1.6-1.3,2.9-3,2.9
							c0,0-6.9,0-6.9,2.9s-2-4.2-2-5.8V8.7c-3.6-1.4-10.1-3.9-20.7-3.9C85.7,4.8,79.8,6.9,74.7,9l0.1,0.1l0,2l-2.2,5.3l-2.7-1.1
							c-0.2-0.1-0.8-0.3-1.5-0.5c-2-0.5-4.1-0.7-6-0.3c-0.7,0.1-1.3,0.3-1.9,0.6l-2.6,1.3l-2.6-5.2l0.1-2.3l0.1-0.2
							c-4.4-2-8.4-4.1-22.8-4.1c-10.6,0-17.1,2.6-20.7,3.9v2.8c0,1.6-3,8.7-3,5.8S3,14.4,3,14.4c-1.6,0-3-1.3-3-2.9V8.7
							C0,7.1,1.3,5.8,3,5.8z"/>
					</g>
				</g>
			</g>
		</g>
	</g>
</g>
</svg>
