<?xml version="1.0" encoding="utf-8"?>
<!-- Generator: Adobe Illustrator 28.0.0, SVG Export Plug-In . SVG Version: 6.00 Build 0)  -->
<svg version="1.1" id="Layer_1" xmlns="http://www.w3.org/2000/svg" xmlns:xlink="http://www.w3.org/1999/xlink" x="0px" y="0px"
	 viewBox="0 0 264 280" style="enable-background:new 0 0 264 280;" xml:space="preserve">
<style type="text/css">
	.st0{display:none;}
	.st1{fill-rule:evenodd;clip-rule:evenodd;fill:#E6E6E6;}
	.st2{filter:url(#Adobe_OpacityMaskFilter);}
	.st3{fill-rule:evenodd;clip-rule:evenodd;fill:#FFFFFF;}
	.st4{mask:url(#react-mask-4_00000113321905542215141040000001367056890819878837_);}
	.st5{fill-rule:evenodd;clip-rule:evenodd;fill:#65C9FF;}
	.st6{filter:url(#Adobe_OpacityMaskFilter_00000160165788472234679180000016078769346616828806_);}
	.st7{mask:url(#react-mask-5_00000174580946104763028500000004535264816647990405_);}
	.st8{fill-rule:evenodd;clip-rule:evenodd;fill:#D0C6AC;}
	.st9{filter:url(#Adobe_OpacityMaskFilter_00000080179262002126713620000003313581391664859531_);}
	.st10{mask:url(#react-mask-6_00000158746574748718509430000001055243571533890728_);}
	.st11{fill-rule:evenodd;clip-rule:evenodd;fill:#FFDBB4;}
	.st12{filter:url(#Adobe_OpacityMaskFilter_00000180355199781329199030000016779591181981822877_);}
	
		.st13{mask:url(#react-mask-6_00000019668892342632625450000012747730506180472998_);fill-rule:evenodd;clip-rule:evenodd;fill-opacity:0.1;}
	.st14{filter:url(#Adobe_OpacityMaskFilter_00000115476642310545578680000011428171433407270295_);}
	.st15{mask:url(#react-mask-358_00000074418226657724244790000013092436163819652016_);}
	.st16{fill-rule:evenodd;clip-rule:evenodd;fill:#25557C;}
	.st17{filter:url(#Adobe_OpacityMaskFilter_00000034804936700054674560000018444591201187711639_);}
	.st18{opacity:0.6;mask:url(#react-mask-358_00000180361992739703737770000000017970945924209846_);}
	.st19{fill-rule:evenodd;clip-rule:evenodd;fill-opacity:0.16;}
	.st20{fill-rule:evenodd;clip-rule:evenodd;fill-opacity:0.7;}
	.st21{filter:url(#Adobe_OpacityMaskFilter_00000024003113061201224620000006304137452906532237_);}
	
		.st22{mask:url(#react-mask-438_00000095331056362327220410000008936901023695991705_);fill-rule:evenodd;clip-rule:evenodd;fill:#FFFFFF;}
	.st23{filter:url(#Adobe_OpacityMaskFilter_00000081620015530270869630000011047638656123876287_);}
	.st24{mask:url(#react-mask-438_00000142894581590045010010000013748498697013877169_);}
	.st25{fill-rule:evenodd;clip-rule:evenodd;fill:#FF4F6D;}
	.st26{filter:url(#Adobe_OpacityMaskFilter_00000163770420928656907970000015430526922239970433_);}
	
		.st27{mask:url(#react-mask-379_00000171681964256094869380000002658040289201211271_);fill-rule:evenodd;clip-rule:evenodd;fill-opacity:0.7;}
	.st28{filter:url(#Adobe_OpacityMaskFilter_00000071521186469683430180000016538373639241688758_);}
	
		.st29{mask:url(#react-mask-380_00000099630552308865684140000010346149771490722997_);fill-rule:evenodd;clip-rule:evenodd;fill-opacity:0.7;}
	.st30{fill-rule:evenodd;clip-rule:evenodd;fill-opacity:0.6;}
	.st31{filter:url(#Adobe_OpacityMaskFilter_00000121259825348066078840000007457701441098345361_);}
	.st32{mask:url(#react-mask-503_00000168076900532440980870000005523063995275720322_);}
	.st33{fill-rule:evenodd;clip-rule:evenodd;fill:#1F3140;}
	.st34{filter:url(#Adobe_OpacityMaskFilter_00000087372614163975115930000006935667720423508352_);}
	.st35{mask:url(#react-mask-502_00000180348218602294078050000006121707246111045518_);}
	.st36{fill-rule:evenodd;clip-rule:evenodd;fill:#724133;}
</style>
<g id="Avataaar_00000124135176760328859950000004922267050888037560_">
	<g id="Avataaar_x2F_Circle" transform="translate(-825.000000, -1100.000000)">
		<g transform="translate(825.000000, 1100.000000)">
			<g id="Circle" transform="translate(12.000000, 40.000000)">
				<g id="Circle-Background" class="st0">
					<circle id="react-path-1_00000168101244699709539070000009677079601537540539_" class="st1" cx="453" cy="156" r="120"/>
				</g>
				<defs>
					<filter id="Adobe_OpacityMaskFilter" filterUnits="userSpaceOnUse" x="333" y="36" width="240" height="240">
						<feColorMatrix  type="matrix" values="1 0 0 0 0  0 1 0 0 0  0 0 1 0 0  0 0 0 1 0"/>
					</filter>
				</defs>
				
					<mask maskUnits="userSpaceOnUse" x="333" y="36" width="240" height="240" id="react-mask-4_00000113321905542215141040000001367056890819878837_">
					<g class="st2">
						<circle id="react-path-1_00000020373218006787282900000000007942120037986961_" class="st3" cx="453" cy="156" r="120"/>
					</g>
				</mask>
				<g id="Color_x2F_Palette_x2F_Blue-01" class="st4">
					<rect id="_xD83D__xDD8D_Color" x="333" y="36" class="st5" width="240" height="240"/>
				</g>
			</g>
			<g id="Mask">
			</g>
			<defs>
				
					<filter id="Adobe_OpacityMaskFilter_00000164489700602791644430000011843212565474838402_" filterUnits="userSpaceOnUse" x="332" y="36" width="297" height="316">
					<feColorMatrix  type="matrix" values="1 0 0 0 0  0 1 0 0 0  0 0 1 0 0  0 0 0 1 0"/>
				</filter>
			</defs>
			
				<mask maskUnits="userSpaceOnUse" x="332" y="36" width="297" height="316" id="react-mask-5_00000174580946104763028500000004535264816647990405_">
				<g style="filter:url(#Adobe_OpacityMaskFilter_00000164489700602791644430000011843212565474838402_);">
					<path id="react-path-2_00000130637259171575913270000004101143331493869468_" class="st3" d="M345,196c0,66.3,53.7,120,120,120
						s120-53.7,120-120h12V36H333v160H345z"/>
				</g>
			</mask>
			<g id="Avataaar" class="st7">
				<g id="Body" transform="translate(32.000000, 36.000000)">
					<g>
						<path id="react-path-3_00000144317757628807828710000003377882048768146859_" class="st8" d="M457,180.6V199h4l0,0
							c39.8,0,72,32.2,72,72v9H333v-9c0-39.8,32.2-72,72-72l0,0h4v-18.4c-17.2-8.2-29.6-24.9-31.7-44.7c-5.8-0.8-10.3-5.8-10.3-11.9
							v-14c0-5.9,4.3-10.9,10-11.8V92l0,0c0-30.9,25.1-56,56-56l0,0l0,0c30.9,0,56,25.1,56,56v6.2c5.7,1,10,5.9,10,11.8v14
							c0,6.1-4.5,11.1-10.3,11.9C486.6,155.7,474.2,172.4,457,180.6z"/>
					</g>
					<defs>
						
							<filter id="Adobe_OpacityMaskFilter_00000029729650780619932350000012194215612929512605_" filterUnits="userSpaceOnUse" x="333" y="36" width="264" height="280">
							<feColorMatrix  type="matrix" values="1 0 0 0 0  0 1 0 0 0  0 0 1 0 0  0 0 0 1 0"/>
						</filter>
					</defs>
					
						<mask maskUnits="userSpaceOnUse" x="333" y="36" width="264" height="280" id="react-mask-6_00000158746574748718509430000001055243571533890728_">
						<g style="filter:url(#Adobe_OpacityMaskFilter_00000029729650780619932350000012194215612929512605_);">
							<path id="react-path-3_00000152958965727636331010000004294617958612785072_" class="st3" d="M457,180.6V199h4l0,0
								c39.8,0,72,32.2,72,72v9H333v-9c0-39.8,32.2-72,72-72l0,0h4v-18.4c-17.2-8.2-29.6-24.9-31.7-44.7
								c-5.8-0.8-10.3-5.8-10.3-11.9v-14c0-5.9,4.3-10.9,10-11.8V92l0,0c0-30.9,25.1-56,56-56l0,0l0,0c30.9,0,56,25.1,56,56v6.2
								c5.7,1,10,5.9,10,11.8v14c0,6.1-4.5,11.1-10.3,11.9C486.6,155.7,474.2,172.4,457,180.6z"/>
						</g>
					</mask>
					<g id="Skin_x2F__xD83D__xDC76__xD83C__xDFFD_-03-Brown" class="st10">
						<g id="Color" transform="translate(0.000000, 0.000000)">
							<rect x="333" y="36" class="st11" width="264" height="280"/>
						</g>
					</g>
					<defs>
						
							<filter id="Adobe_OpacityMaskFilter_00000062884523581054591390000014788626904335610011_" filterUnits="userSpaceOnUse" x="377" y="115" width="112" height="79">
							<feColorMatrix  type="matrix" values="1 0 0 0 0  0 1 0 0 0  0 0 1 0 0  0 0 0 1 0"/>
						</filter>
					</defs>
					
						<mask maskUnits="userSpaceOnUse" x="377" y="115" width="112" height="79" id="react-mask-6_00000019668892342632625450000012747730506180472998_">
						<g style="filter:url(#Adobe_OpacityMaskFilter_00000062884523581054591390000014788626904335610011_);">
							<path id="react-path-3_00000095324221729622882500000006268938482223137451_" class="st3" d="M457,180.6V199h4l0,0
								c39.8,0,72,32.2,72,72v9H333v-9c0-39.8,32.2-72,72-72l0,0h4v-18.4c-17.2-8.2-29.6-24.9-31.7-44.7
								c-5.8-0.8-10.3-5.8-10.3-11.9v-14c0-5.9,4.3-10.9,10-11.8V92l0,0c0-30.9,25.1-56,56-56l0,0l0,0c30.9,0,56,25.1,56,56v6.2
								c5.7,1,10,5.9,10,11.8v14c0,6.1-4.5,11.1-10.3,11.9C486.6,155.7,474.2,172.4,457,180.6z"/>
						</g>
					</mask>
					<path id="Neck-Shadow" class="st13" d="M489,115v23c0,30.9-25.1,56-56,56s-56-25.1-56-56v-23v15c0,30.9,25.1,56,56,56
						s56-25.1,56-56V115z"/>
				</g>
				<g id="Clothing_x2F_Shirt-Crew-Neck" transform="translate(0.000000, 170.000000)">
					<g id="Clothes">
						<path id="react-path-357_00000119799446386952625290000015299590231487583637_" class="st1" d="M499,65.3c37,3,66,34,66,71.8
							v8.9H365v-8.9c0-38.1,29.6-69.3,67-71.8c0,0.4,0,0.7,0,1.1c0,11.9,15,21.5,33.5,21.5S499,78.2,499,66.3
							C499,66,499,65.6,499,65.3z"/>
					</g>
					<defs>
						
							<filter id="Adobe_OpacityMaskFilter_00000090989000166093102710000014396588280559892393_" filterUnits="userSpaceOnUse" x="333" y="36" width="264" height="110">
							<feColorMatrix  type="matrix" values="1 0 0 0 0  0 1 0 0 0  0 0 1 0 0  0 0 0 1 0"/>
						</filter>
					</defs>
					
						<mask maskUnits="userSpaceOnUse" x="333" y="36" width="264" height="110" id="react-mask-358_00000074418226657724244790000013092436163819652016_">
						<g style="filter:url(#Adobe_OpacityMaskFilter_00000090989000166093102710000014396588280559892393_);">
							<path id="react-path-357_00000133517001761199706950000011070707776712452992_" class="st3" d="M499,65.3c37,3,66,34,66,71.8
								v8.9H365v-8.9c0-38.1,29.6-69.3,67-71.8c0,0.4,0,0.7,0,1.1c0,11.9,15,21.5,33.5,21.5S499,78.2,499,66.3
								C499,66,499,65.6,499,65.3z"/>
						</g>
					</mask>
					<g id="Color_x2F_Palette_x2F_Gray-01" class="st15">
						
							<rect id="_xD83D__xDD8D_Color_00000077325636414008618560000008924129871367097011_" x="333" y="36" class="st16" width="264" height="110"/>
					</g>
					<defs>
						
							<filter id="Adobe_OpacityMaskFilter_00000179611896043797114530000002375049896089594766_" filterUnits="userSpaceOnUse" x="425.9" y="40.9" width="79.3" height="53.8">
							<feColorMatrix  type="matrix" values="1 0 0 0 0  0 1 0 0 0  0 0 1 0 0  0 0 0 1 0"/>
						</filter>
					</defs>
					
						<mask maskUnits="userSpaceOnUse" x="425.9" y="40.9" width="79.3" height="53.8" id="react-mask-358_00000180361992739703737770000000017970945924209846_">
						<g style="filter:url(#Adobe_OpacityMaskFilter_00000179611896043797114530000002375049896089594766_);">
							<path id="react-path-357_00000134210302644119088500000011897390516947739780_" class="st3" d="M499,65.3c37,3,66,34,66,71.8
								v8.9H365v-8.9c0-38.1,29.6-69.3,67-71.8c0,0.4,0,0.7,0,1.1c0,11.9,15,21.5,33.5,21.5S499,78.2,499,66.3
								C499,66,499,65.6,499,65.3z"/>
						</g>
					</mask>
					<g id="Shadowy" class="st18">
						<g id="Hola-_xD83D__xDC4B__xD83C__xDFFC_" transform="translate(92.000000, 4.000000)">
							<ellipse class="st19" cx="373.5" cy="63.8" rx="39.6" ry="26.9"/>
						</g>
					</g>
				</g>
				<g id="Face" transform="translate(76.000000, 82.000000)">
					<g id="Mouth_x2F_Smile" transform="translate(2.000000, 52.000000)">
						<g id="Mouth">
							<path id="react-path-437_00000066485878366857592350000007106543180003966135_" class="st20" d="M368.1,51.1
								c1.1,9.5,9.1,16.9,18.9,16.9c9.8,0,17.9-7.4,18.9-17c0.1-0.8-0.8-2-1.8-2c-14.9,0-26.3,0-34,0C369,49,368,50.2,368.1,51.1z"
								/>
						</g>
						<defs>
							
								<filter id="Adobe_OpacityMaskFilter_00000010273164333892282270000007000590229141235845_" filterUnits="userSpaceOnUse" x="372" y="38" width="31" height="16">
								<feColorMatrix  type="matrix" values="1 0 0 0 0  0 1 0 0 0  0 0 1 0 0  0 0 0 1 0"/>
							</filter>
						</defs>
						
							<mask maskUnits="userSpaceOnUse" x="372" y="38" width="31" height="16" id="react-mask-438_00000095331056362327220410000008936901023695991705_">
							<g style="filter:url(#Adobe_OpacityMaskFilter_00000010273164333892282270000007000590229141235845_);">
								<path id="react-path-437_00000078016496589511623650000000940047863101548700_" class="st3" d="M368.1,51.1
									c1.1,9.5,9.1,16.9,18.9,16.9c9.8,0,17.9-7.4,18.9-17c0.1-0.8-0.8-2-1.8-2c-14.9,0-26.3,0-34,0C369,49,368,50.2,368.1,51.1z"
									/>
							</g>
						</mask>
						<path id="Teeth" class="st22" d="M377,38h21c2.8,0,5,2.2,5,5v6c0,2.8-2.2,5-5,5h-21c-2.8,0-5-2.2-5-5v-6
							C372,40.2,374.2,38,377,38z"/>
						<defs>
							
								<filter id="Adobe_OpacityMaskFilter_00000169523815484211047120000010460428678542811299_" filterUnits="userSpaceOnUse" x="371" y="60" width="32" height="22">
								<feColorMatrix  type="matrix" values="1 0 0 0 0  0 1 0 0 0  0 0 1 0 0  0 0 0 1 0"/>
							</filter>
						</defs>
						
							<mask maskUnits="userSpaceOnUse" x="371" y="60" width="32" height="22" id="react-mask-438_00000142894581590045010010000013748498697013877169_">
							<g style="filter:url(#Adobe_OpacityMaskFilter_00000169523815484211047120000010460428678542811299_);">
								<path id="react-path-437_00000113328634269002599920000013084165609808770435_" class="st3" d="M368.1,51.1
									c1.1,9.5,9.1,16.9,18.9,16.9c9.8,0,17.9-7.4,18.9-17c0.1-0.8-0.8-2-1.8-2c-14.9,0-26.3,0-34,0C369,49,368,50.2,368.1,51.1z"
									/>
							</g>
						</mask>
						<g id="Tongue" class="st24">
							<g transform="translate(38.000000, 24.000000)">
								<circle class="st25" cx="344" cy="47" r="11"/>
								<circle class="st25" cx="354" cy="47" r="11"/>
							</g>
						</g>
					</g>
					<g id="Nose_x2F_Default" transform="translate(28.000000, 40.000000)">
						<path id="Nose" class="st19" d="M349,44c0,4.4,5.4,8,12,8l0,0c6.6,0,12-3.6,12-8"/>
					</g>
					<g id="Eyes_x2F_Squint-_xD83D__xDE0A_" transform="translate(0.000000, 8.000000)">
						<g id="Eye" transform="translate(16.000000, 13.000000)">
							<g id="The-white-stuff">
								<path id="react-path-377_00000074441529109487178010000012551407112374784129_" class="st3" d="M347,50c9.6,0,14,4.5,14-2.5
									S354.7,36,347,36s-14,4.6-14,11.6S337.4,50,347,50z"/>
							</g>
							<defs>
								
									<filter id="Adobe_OpacityMaskFilter_00000055682739644085840030000013761699561098513570_" filterUnits="userSpaceOnUse" x="341" y="40" width="12" height="12">
									<feColorMatrix  type="matrix" values="1 0 0 0 0  0 1 0 0 0  0 0 1 0 0  0 0 0 1 0"/>
								</filter>
							</defs>
							
								<mask maskUnits="userSpaceOnUse" x="341" y="40" width="12" height="12" id="react-mask-379_00000171681964256094869380000002658040289201211271_">
								<g style="filter:url(#Adobe_OpacityMaskFilter_00000055682739644085840030000013761699561098513570_);">
									<path id="react-path-377_00000101061850492528232960000011603162988706174883_" class="st3" d="M347,50
										c9.6,0,14,4.5,14-2.5S354.7,36,347,36s-14,4.6-14,11.6S337.4,50,347,50z"/>
								</g>
							</mask>
							<circle class="st27" cx="347" cy="46" r="6"/>
						</g>
						<g id="Eye_00000047764981990793777440000004826889988362975136_" transform="translate(68.000000, 13.000000)">
							<g id="Eyeball-Mask">
								<path id="react-path-378_00000142899008351451178560000016964559850926519466_" class="st3" d="M347,50c9.6,0,14,4.5,14-2.5
									S354.7,36,347,36s-14,4.6-14,11.6S337.4,50,347,50z"/>
							</g>
							<defs>
								
									<filter id="Adobe_OpacityMaskFilter_00000139981135914543177920000011520950438417650322_" filterUnits="userSpaceOnUse" x="341" y="40" width="12" height="12">
									<feColorMatrix  type="matrix" values="1 0 0 0 0  0 1 0 0 0  0 0 1 0 0  0 0 0 1 0"/>
								</filter>
							</defs>
							
								<mask maskUnits="userSpaceOnUse" x="341" y="40" width="12" height="12" id="react-mask-380_00000099630552308865684140000010346149771490722997_">
								<g style="filter:url(#Adobe_OpacityMaskFilter_00000139981135914543177920000011520950438417650322_);">
									<path id="react-path-378_00000108275300964231694980000005103204627621314691_" class="st3" d="M347,50
										c9.6,0,14,4.5,14-2.5S354.7,36,347,36s-14,4.6-14,11.6S337.4,50,347,50z"/>
								</g>
							</mask>
							<circle class="st29" cx="347" cy="46" r="6"/>
						</g>
					</g>
					<g id="Eyebrow_x2F_Natural_x2F_Raised-Excited-Natural">
						<path id="Eye-Browse-Reddit" class="st30" d="M355.8,37.6l0.9-0.4c5.2-2.1,13.2-1.2,18,1.1c0.6,0.3,0.2,1.2-0.4,1.1
							c-14.9-1.2-25,8.1-28.4,14.4c-0.1,0.2-0.4,0.2-0.5,0C343.2,48.6,349.9,39.9,355.8,37.6z"/>
						<path id="Eye-Browse-Reddit_00000170242302961694670820000002753405757188843657_" class="st30" d="M422.2,37.6l-0.9-0.4
							c-5.2-2.1-13.2-1.2-18,1.1c-0.6,0.3-0.2,1.2,0.4,1.1c14.9-1.2,25,8.1,28.4,14.4c0.1,0.2,0.4,0.2,0.5,0
							C434.8,48.6,428.1,39.9,422.2,37.6z"/>
					</g>
				</g>
				<g id="Top">
					<g id="Mask_00000022550544425273466300000008969809043485656735_">
					</g>
					<defs>
						
							<filter id="Adobe_OpacityMaskFilter_00000062872336065559374400000014742619771115992963_" filterUnits="userSpaceOnUse" x="332" y="36" width="264" height="280">
							<feColorMatrix  type="matrix" values="1 0 0 0 0  0 1 0 0 0  0 0 1 0 0  0 0 0 1 0"/>
						</filter>
					</defs>
					
						<mask maskUnits="userSpaceOnUse" x="332" y="36" width="264" height="280" id="react-mask-503_00000168076900532440980870000005523063995275720322_">
						<g style="filter:url(#Adobe_OpacityMaskFilter_00000062872336065559374400000014742619771115992963_);">
							
								<rect id="react-path-505_00000001637573138787503150000005395122578476574887_" x="333" y="36" class="st3" width="264" height="280"/>
						</g>
					</mask>
					<g id="Top_x2F_Short-Hair_x2F_Short-Flat" class="st32">
						<g transform="translate(-1.000000, 0.000000)">
							<g id="Short-Hair">
								<path id="react-path-504_00000085218415033425529620000006087701322803430300_" class="st33" d="M513.1,75.9
									c-2.8-2.8-6-5.2-9.1-7.6c-0.7-0.5-1.4-1-2.1-1.6c-0.2-0.1-1.7-1.2-1.9-1.7c-0.5-1-0.2-0.2-0.1-1.4c0.1-1.5,3.1-5.7,0.9-6.7
									c-1-0.4-2.8,0.7-3.8,1.1c-1.9,0.7-3.8,1.4-5.7,1.9c0.9-1.9,2.7-5.6-0.6-4.6c-2.6,0.8-5,2.8-7.6,3.7c0.9-1.4,4.3-5.8,1.2-6.1
									c-1-0.1-3.8,1.7-4.9,2.1c-3.1,1.2-6.3,1.9-9.6,2.5c-11.2,2-24.3,1.4-34.7,6.5c-8,3.9-15.9,10-20.5,17.8
									c-4.4,7.5-6.1,15.7-7,24.3c-0.7,6.3-0.7,12.8-0.4,19.1c0.1,2.1,0.3,11.6,3.3,8.7c1.5-1.4,1.5-7.3,1.9-9.2
									c0.8-3.9,1.5-7.8,2.7-11.6c2.2-6.7,4.8-13.8,10.3-18.4c3.5-3,6-6.9,9.4-9.9c1.5-1.3,0.4-1.2,2.8-1c1.6,0.1,3.3,0.2,4.9,0.2
									c3.8,0.1,7.6,0.1,11.4,0.1c7.6,0,15.3,0.1,22.9-0.3c3.4-0.2,6.8-0.3,10.2-0.6c1.9-0.2,5.2-1.4,6.8-0.5
									c1.4,0.8,2.9,3.6,3.9,4.7c2.4,2.7,5.3,4.7,8.1,6.9c5.9,4.6,8.9,10.3,10.7,17.5c1.8,7.1,1.3,13.7,3.5,20.8
									c0.4,1.2,1.4,3.4,2.7,1.5c0.2-0.4,0.2-2.3,0.2-3.4c0-4.5,1.1-7.9,1.1-12.5C523.9,104.5,523.5,86.5,513.1,75.9z"/>
							</g>
							<defs>
								
									<filter id="Adobe_OpacityMaskFilter_00000085970982106729297970000004834349431039006095_" filterUnits="userSpaceOnUse" x="333" y="36" width="264" height="280">
									<feColorMatrix  type="matrix" values="1 0 0 0 0  0 1 0 0 0  0 0 1 0 0  0 0 0 1 0"/>
								</filter>
							</defs>
							
								<mask maskUnits="userSpaceOnUse" x="333" y="36" width="264" height="280" id="react-mask-502_00000180348218602294078050000006121707246111045518_">
								<g style="filter:url(#Adobe_OpacityMaskFilter_00000085970982106729297970000004834349431039006095_);">
									<path id="react-path-504_00000181794936060846618360000003391711458341310610_" class="st3" d="M513.1,75.9
										c-2.8-2.8-6-5.2-9.1-7.6c-0.7-0.5-1.4-1-2.1-1.6c-0.2-0.1-1.7-1.2-1.9-1.7c-0.5-1-0.2-0.2-0.1-1.4c0.1-1.5,3.1-5.7,0.9-6.7
										c-1-0.4-2.8,0.7-3.8,1.1c-1.9,0.7-3.8,1.4-5.7,1.9c0.9-1.9,2.7-5.6-0.6-4.6c-2.6,0.8-5,2.8-7.6,3.7
										c0.9-1.4,4.3-5.8,1.2-6.1c-1-0.1-3.8,1.7-4.9,2.1c-3.1,1.2-6.3,1.9-9.6,2.5c-11.2,2-24.3,1.4-34.7,6.5
										c-8,3.9-15.9,10-20.5,17.8c-4.4,7.5-6.1,15.7-7,24.3c-0.7,6.3-0.7,12.8-0.4,19.1c0.1,2.1,0.3,11.6,3.3,8.7
										c1.5-1.4,1.5-7.3,1.9-9.2c0.8-3.9,1.5-7.8,2.7-11.6c2.2-6.7,4.8-13.8,10.3-18.4c3.5-3,6-6.9,9.4-9.9c1.5-1.3,0.4-1.2,2.8-1
										c1.6,0.1,3.3,0.2,4.9,0.2c3.8,0.1,7.6,0.1,11.4,0.1c7.6,0,15.3,0.1,22.9-0.3c3.4-0.2,6.8-0.3,10.2-0.6
										c1.9-0.2,5.2-1.4,6.8-0.5c1.4,0.8,2.9,3.6,3.9,4.7c2.4,2.7,5.3,4.7,8.1,6.9c5.9,4.6,8.9,10.3,10.7,17.5
										c1.8,7.1,1.3,13.7,3.5,20.8c0.4,1.2,1.4,3.4,2.7,1.5c0.2-0.4,0.2-2.3,0.2-3.4c0-4.5,1.1-7.9,1.1-12.5
										C523.9,104.5,523.5,86.5,513.1,75.9z"/>
								</g>
							</mask>
							<g id="Skin_x2F__xD83D__xDC76__xD83C__xDFFD_-03-Brown_00000137825453002139796190000003806597781631264421_" class="st35">
								<g id="Color_00000080175529504358424120000013613042177978612363_" transform="translate(0.000000, 0.000000) ">
									<rect x="333" y="36" class="st36" width="264" height="280"/>
								</g>
							</g>
						</g>
					</g>
				</g>
			</g>
		</g>
	</g>
</g>
</svg>
